Coordinates
version=1
nRows=20
nColumns=38
inDegrees=no

Units are S.I. units (second, meters, Newtons, ...)
If the header above contains a line with 'inDegrees', this indicates whether rotational values are in degrees (yes) or radians (no).

endheader
time	pelvis_tilt	pelvis_list	pelvis_rotation	pelvis_tx	pelvis_ty	pelvis_tz	hip_flexion_r	hip_adduction_r	hip_rotation_r	knee_angle_r	ankle_angle_r	subtalar_angle_r	mtp_angle_r	hip_flexion_l	hip_adduction_l	hip_rotation_l	knee_angle_l	ankle_angle_l	subtalar_angle_l	mtp_angle_l	lumbar_extension	lumbar_bending	lumbar_rotation	arm_flex_r	arm_add_r	arm_rot_r	elbow_flex_r	pro_sup_r	wrist_flex_r	wrist_dev_r	arm_flex_l	arm_add_l	arm_rot_l	elbow_flex_l	pro_sup_l	wrist_flex_l	wrist_dev_l
40	-0.0313189	0.947318	1.62216	0.749501	-0.419442	0.839733	1.42574	-0.0570213	0.0930645	1.1495	-0.0943985	0	0	1.33208	-0.0478973	0.0107649	1.19473	-0.062771	0	0	-0.586577	-0.0401815	0.147162	0.44007	-0.601864	0.417826	0.893374	0.86012	0	0	0.8009	-0.256208	0.826943	0.466744	0.961558	0	0
40.01	-0.0308213	0.947213	1.6196	0.749356	-0.419434	0.839725	1.42582	-0.0556935	0.0925606	1.14864	-0.0959283	0	0	1.33222	-0.0498748	0.0110987	1.19502	-0.0625349	0	0	-0.586996	-0.0392589	0.14695	0.443749	-0.604049	0.426438	0.895337	0.851717	0	0	0.797428	-0.254527	0.808803	0.464026	0.978052	0	0
40.02	-0.0302905	0.946655	1.61723	0.749178	-0.419378	0.83991	1.42571	-0.054514	0.0921111	1.14679	-0.0977762	0	0	1.33231	-0.0516382	0.0113405	1.19414	-0.0631598	0	0	-0.587233	-0.0374498	0.144799	0.449536	-0.604701	0.436411	0.896389	0.843086	0	0	0.79271	-0.254686	0.788743	0.463304	0.987772	0	0
40.03	-0.0309557	0.946661	1.61604	0.749065	-0.419246	0.84039	1.42455	-0.0534906	0.0924427	1.14441	-0.099082	0	0	1.33096	-0.053247	0.0101234	1.19179	-0.0640402	0	0	-0.589251	-0.0362823	0.142002	0.454392	-0.604013	0.44134	0.898686	0.836023	0	0	0.789092	-0.257811	0.774844	0.467374	0.99174	0	0
40.04	-0.0324948	0.948533	1.61682	0.749072	-0.41951	0.840908	1.4226	-0.0532139	0.0935556	1.14368	-0.0997315	0	0	1.32827	-0.0533857	0.00984491	1.19014	-0.064555	0	0	-0.596168	-0.0443055	0.140277	0.455683	-0.60258	0.440627	0.901022	0.831001	0	0	0.791116	-0.264885	0.768692	0.483362	0.993682	0	0
40.05	-0.032903	0.947016	1.61696	0.74888	-0.41948	0.841541	1.4225	-0.053443	0.0937586	1.14068	-0.100811	0	0	1.32763	-0.0530768	0.00934801	1.18675	-0.065396	0	0	-0.594401	-0.0442339	0.139461	0.457044	-0.600867	0.439729	0.899462	0.823709	0	0	0.791983	-0.263919	0.768574	0.479954	0.988746	0	0
40.06	-0.0327447	0.945427	1.61727	0.748604	-0.419417	0.842333	1.42208	-0.0540905	0.0937769	1.13738	-0.101403	0	0	1.32699	-0.0522465	0.0087682	1.18296	-0.0660218	0	0	-0.592557	-0.0435369	0.137987	0.457883	-0.599095	0.437141	0.897879	0.819295	0	0	0.791666	-0.262976	0.764773	0.477829	0.985243	0	0
40.07	-0.0322405	0.944278	1.61804	0.748203	-0.419336	0.843369	1.42073	-0.0555114	0.0933924	1.13358	-0.102402	0	0	1.32561	-0.0505869	0.00840229	1.17791	-0.067265	0	0	-0.590717	-0.0421311	0.135804	0.458619	-0.596925	0.432794	0.895215	0.811648	0	0	0.791239	-0.261638	0.761384	0.475008	0.979809	0	0
40.08	-0.0317376	0.943129	1.61804	0.747945	-0.419175	0.844519	1.41911	-0.0558924	0.0933115	1.12942	-0.103962	0	0	1.32373	-0.0500661	0.00754635	1.172	-0.0690723	0	0	-0.588258	-0.0412102	0.134547	0.459003	-0.594478	0.427521	0.891733	0.800306	0	0	0.790694	-0.260293	0.760588	0.472218	0.973866	0	0
40.09	-0.0308008	0.942851	1.61786	0.747593	-0.419006	0.845895	1.4163	-0.0564859	0.0928731	1.12488	-0.10588	0	0	1.32047	-0.0493226	0.00739178	1.16558	-0.070939	0	0	-0.586494	-0.0397104	0.133971	0.459964	-0.592948	0.423493	0.887917	0.789054	0	0	0.790544	-0.258361	0.762181	0.469596	0.967881	0	0
40.1	-0.0300166	0.942992	1.6173	0.747357	-0.41873	0.847397	1.41278	-0.0564994	0.0926238	1.12	-0.108037	0	0	1.31636	-0.0493914	0.00686801	1.15885	-0.072853	0	0	-0.584953	-0.0385575	0.134495	0.461076	-0.591791	0.421059	0.883633	0.778756	0	0	0.79045	-0.256244	0.764851	0.467039	0.960974	0	0
40.11	-0.0295996	0.943466	1.61646	0.747312	-0.418295	0.849019	1.40831	-0.0557661	0.0928944	1.11427	-0.110615	0	0	1.3114	-0.0505629	0.00523517	1.15169	-0.0750899	0	0	-0.583307	-0.0380989	0.13603	0.461133	-0.590017	0.418321	0.879037	0.763268	0	0	0.790143	-0.253967	0.768572	0.464221	0.950704	0	0
40.12	-0.0293978	0.94482	1.61644	0.747179	-0.417799	0.85083	1.4024	-0.0561266	0.0926658	1.10788	-0.113383	0	0	1.30521	-0.0510129	0.00351719	1.14385	-0.0770788	0	0	-0.582007	-0.0372737	0.137467	0.458703	-0.588609	0.413432	0.877439	0.732649	0	0	0.790048	-0.251505	0.774857	0.460982	0.936463	0	0
40.13	-0.0286834	0.946976	1.6161	0.746924	-0.41735	0.852907	1.39549	-0.0569211	0.0914242	1.101	-0.116032	0	0	1.29785	-0.0511365	0.00242526	1.13491	-0.078658	0	0	-0.580818	-0.0359669	0.139313	0.454899	-0.589112	0.408535	0.879452	0.698207	0	0	0.790052	-0.248439	0.781689	0.457217	0.922306	0	0
40.14	-0.0279116	0.949903	1.61656	0.746543	-0.416863	0.855164	1.38763	-0.0587639	0.0895957	1.09417	-0.118756	0	0	1.28947	-0.0503814	0.00147632	1.12543	-0.0808619	0	0	-0.579732	-0.0344842	0.141252	0.449919	-0.591649	0.406322	0.882624	0.666551	0	0	0.78997	-0.244735	0.788416	0.45313	0.907166	0	0
40.15	-0.0275584	0.951909	1.61705	0.746293	-0.416303	0.857342	1.38089	-0.0599665	0.0883929	1.08794	-0.120861	0	0	1.28205	-0.0501925	-0.000149806	1.11646	-0.0829308	0	0	-0.576692	-0.0337072	0.143227	0.444279	-0.593705	0.406188	0.88498	0.646941	0	0	0.788217	-0.241677	0.793	0.449966	0.894749	0	0
40.16	-0.0277857	0.95369	1.61769	0.746094	-0.415658	0.859577	1.3743	-0.06084	0.0875063	1.08164	-0.122871	0	0	1.27436	-0.0502437	-0.00234082	1.10667	-0.0852718	0	0	-0.572938	-0.0334366	0.145041	0.438093	-0.595213	0.406286	0.887844	0.630717	0	0	0.785248	-0.239216	0.796507	0.447916	0.883102	0	0
40.17	-0.028227	0.955478	1.61806	0.74594	-0.414961	0.861903	1.36728	-0.061697	0.0862841	1.07447	-0.125172	0	0	1.26606	-0.0506557	-0.00479363	1.09639	-0.0877078	0	0	-0.568966	-0.0335608	0.146718	0.431653	-0.596696	0.407262	0.891501	0.61503	0	0	0.781861	-0.237823	0.801702	0.44717	0.872371	0	0
40.18	-0.0284218	0.958097	1.6182	0.745769	-0.414191	0.864393	1.35875	-0.062715	0.0847422	1.06633	-0.12806	0	0	1.25656	-0.0510591	-0.00700627	1.08545	-0.0903341	0	0	-0.565468	-0.0334054	0.148422	0.425299	-0.599272	0.410318	0.895795	0.599583	0	0	0.77877	-0.237039	0.810271	0.446838	0.862172	0	0
40.19	-0.0277947	0.962501	1.61874	0.745356	-0.413399	0.867244	1.34757	-0.0650202	0.0820995	1.05704	-0.131092	0	0	1.2447	-0.0502114	-0.0079857	1.07287	-0.0933306	0	0	-0.563802	-0.0317158	0.149381	0.420003	-0.603316	0.415481	0.900471	0.589344	0	0	0.776226	-0.236238	0.820134	0.446386	0.854749	0	0
